<svg width="48" height="48" viewBox="0 0 48 48" fill="none" xmlns="http://www.w3.org/2000/svg">
<rect width="48" height="48" rx="24" fill="#131416"/>
<path d="M11.507 20.8944C11.5646 20.0016 11.9054 19.3056 12.5294 18.8064C13.163 18.3072 13.9694 18.0576 14.9486 18.0576C15.6206 18.0576 16.2014 18.1776 16.691 18.4176C17.1806 18.6576 17.5502 18.984 17.7998 19.3968C18.0494 19.8096 18.1742 20.2752 18.1742 20.7936C18.1742 21.3888 18.0158 21.8976 17.699 22.32C17.3822 22.7424 17.003 23.0256 16.5614 23.1696V23.2272C17.1278 23.4 17.5694 23.7168 17.8862 24.1776C18.203 24.6288 18.3614 25.2096 18.3614 25.92C18.3614 26.4864 18.2318 26.9904 17.9726 27.432C17.7134 27.8736 17.3294 28.224 16.8206 28.4832C16.3118 28.7328 15.7022 28.8576 14.9918 28.8576C13.955 28.8576 13.1006 28.5936 12.4286 28.0656C11.7662 27.528 11.411 26.76 11.363 25.7616H12.947C12.9854 26.2704 13.1822 26.688 13.5374 27.0144C13.8926 27.3312 14.3726 27.4896 14.9774 27.4896C15.563 27.4896 16.0142 27.3312 16.331 27.0144C16.6478 26.688 16.8062 26.2704 16.8062 25.7616C16.8062 25.0896 16.5902 24.6144 16.1582 24.336C15.7358 24.048 15.083 23.904 14.1998 23.904H13.8254V22.5504H14.2142C14.9918 22.5408 15.5822 22.4112 15.9854 22.1616C16.3982 21.912 16.6046 21.5184 16.6046 20.9808C16.6046 20.52 16.4558 20.1552 16.1582 19.8864C15.8606 19.608 15.4382 19.4688 14.891 19.4688C14.3534 19.4688 13.9358 19.608 13.6382 19.8864C13.3406 20.1552 13.163 20.4912 13.1054 20.8944H11.507ZM28.5242 28.8H26.8826L21.9434 21.3264V28.8H20.3018V18.7776H21.9434L26.8826 26.2368V18.7776H28.5242V28.8ZM37.1456 18.792V20.1312H34.4816V28.8H32.84V20.1312H30.1616V18.792H37.1456Z" fill="white"/>
</svg>
